<?xml version="1.0" encoding="UTF-8"?>
<svg xmlns="http://www.w3.org/2000/svg" xmlns:xlink="http://www.w3.org/1999/xlink" width="375pt" height="374.999991pt" viewBox="0 0 375 374.999991" version="1.2">
<defs>
<clipPath id="clip1">
  <path d="M 0 0.0859375 L 375 0.0859375 L 375 375 L 0 375 Z M 0 0.0859375 "/>
</clipPath>
</defs>
<g id="surface1">
<g clip-path="url(#clip1)" clip-rule="nonzero">
<path style=" stroke:none;fill-rule:nonzero;fill:rgb(0%,29.019165%,67.83905%);fill-opacity:1;" d="M 318.167969 53.019531 C 261.371094 -2.246094 178.0625 -14.121094 109.8125 16.851562 L 109.8125 86.582031 C 130.929688 70.734375 157.332031 60.753906 186.664062 60.753906 C 257.652344 60.753906 315.144531 118.273438 315.144531 189.292969 C 315.144531 260.3125 257.652344 317.835938 186.664062 317.835938 C 116.851562 317.835938 58.183594 260.898438 58.183594 190.46875 L 58.183594 51.734375 C 56.722656 53.128906 55.269531 54.539062 53.84375 55.992188 C 2.605469 108.089844 -12.050781 182.710938 9.882812 247.679688 C 11.925781 253.742188 12.613281 259.953125 11.9375 266.3125 L 1.355469 366.511719 L 104.539062 360.738281 C 110.675781 360.40625 116.625 361.3125 122.386719 363.453125 C 188.921875 388.058594 266.621094 373.625 320.070312 320.148438 C 393.910156 246.273438 393.277344 126.101562 318.167969 53.019531 Z M 318.167969 53.019531 "/>
</g>
<path style=" stroke:none;fill-rule:nonzero;fill:rgb(0%,29.019165%,67.83905%);fill-opacity:1;" d="M 241.007812 134.929688 C 241.898438 135.820312 242.765625 136.730469 243.609375 137.664062 C 244.453125 138.59375 245.277344 139.546875 246.074219 140.519531 C 246.871094 141.492188 247.644531 142.484375 248.394531 143.496094 C 249.144531 144.507812 249.867188 145.535156 250.566406 146.582031 C 251.265625 147.628906 251.9375 148.691406 252.585938 149.769531 C 253.230469 150.847656 253.851562 151.945312 254.445312 153.054688 C 255.035156 154.164062 255.601562 155.285156 256.140625 156.425781 C 256.675781 157.5625 257.1875 158.710938 257.667969 159.875 C 258.148438 161.035156 258.601562 162.210938 259.027344 163.394531 C 259.449219 164.582031 259.84375 165.773438 260.210938 166.980469 C 260.574219 168.183594 260.910156 169.394531 261.214844 170.617188 C 261.519531 171.835938 261.796875 173.0625 262.042969 174.296875 C 262.285156 175.53125 262.5 176.773438 262.6875 178.015625 C 262.871094 179.261719 263.023438 180.511719 263.148438 181.761719 C 263.273438 183.015625 263.363281 184.269531 263.425781 185.527344 C 263.488281 186.78125 263.519531 188.039062 263.519531 189.300781 C 263.519531 190.558594 263.488281 191.816406 263.425781 193.070312 C 263.363281 194.328125 263.273438 195.582031 263.148438 196.835938 C 263.023438 198.085938 262.871094 199.335938 262.6875 200.582031 C 262.5 201.824219 262.285156 203.066406 262.042969 204.300781 C 261.796875 205.535156 261.519531 206.761719 261.214844 207.980469 C 260.910156 209.203125 260.574219 210.414062 260.207031 211.617188 C 259.84375 212.824219 259.449219 214.015625 259.027344 215.203125 C 258.601562 216.386719 258.148438 217.5625 257.667969 218.722656 C 257.1875 219.886719 256.675781 221.035156 256.140625 222.171875 C 255.601562 223.3125 255.035156 224.433594 254.445312 225.542969 C 253.851562 226.652344 253.230469 227.75 252.585938 228.828125 C 251.9375 229.90625 251.265625 230.96875 250.566406 232.015625 C 249.867188 233.0625 249.144531 234.089844 248.394531 235.101562 C 247.644531 236.113281 246.871094 237.105469 246.074219 238.078125 C 245.277344 239.050781 244.453125 240.003906 243.609375 240.933594 C 242.765625 241.867188 241.898438 242.777344 241.007812 243.667969 C 240.117188 244.558594 239.207031 245.425781 238.277344 246.269531 C 237.34375 247.117188 236.390625 247.9375 235.421875 248.734375 C 234.449219 249.535156 233.457031 250.308594 232.445312 251.058594 C 231.4375 251.808594 230.40625 252.53125 229.363281 253.230469 C 228.316406 253.929688 227.253906 254.601562 226.175781 255.25 C 225.097656 255.894531 224.003906 256.515625 222.894531 257.109375 C 221.785156 257.703125 220.660156 258.269531 219.523438 258.804688 C 218.386719 259.34375 217.238281 259.855469 216.074219 260.335938 C 214.914062 260.816406 213.738281 261.269531 212.554688 261.695312 C 211.371094 262.117188 210.175781 262.511719 208.972656 262.878906 C 207.769531 263.242188 206.558594 263.578125 205.339844 263.882812 C 204.117188 264.191406 202.890625 264.464844 201.65625 264.710938 C 200.425781 264.957031 199.183594 265.171875 197.941406 265.355469 C 196.695312 265.542969 195.449219 265.695312 194.199219 265.820312 C 192.945312 265.941406 191.691406 266.035156 190.433594 266.097656 C 189.179688 266.15625 187.921875 266.1875 186.664062 266.1875 C 185.40625 266.1875 184.148438 266.15625 182.894531 266.097656 C 181.636719 266.035156 180.382812 265.941406 179.132812 265.820312 C 177.878906 265.695312 176.632812 265.542969 175.386719 265.355469 C 174.144531 265.171875 172.90625 264.957031 171.671875 264.710938 C 170.4375 264.464844 169.210938 264.191406 167.992188 263.882812 C 166.769531 263.578125 165.558594 263.242188 164.355469 262.878906 C 163.152344 262.511719 161.957031 262.117188 160.773438 261.695312 C 159.589844 261.269531 158.414062 260.816406 157.253906 260.335938 C 156.089844 259.855469 154.941406 259.34375 153.804688 258.804688 C 152.667969 258.269531 151.546875 257.703125 150.4375 257.109375 C 149.328125 256.515625 148.234375 255.894531 147.152344 255.25 C 146.074219 254.601562 145.011719 253.929688 143.964844 253.230469 C 142.921875 252.53125 141.894531 251.808594 140.882812 251.058594 C 139.871094 250.308594 138.882812 249.535156 137.910156 248.734375 C 136.9375 247.9375 135.984375 247.117188 135.050781 246.269531 C 134.121094 245.425781 133.210938 244.558594 132.320312 243.667969 C 131.429688 242.777344 130.5625 241.867188 129.71875 240.933594 C 128.875 240.003906 128.054688 239.050781 127.253906 238.078125 C 126.457031 237.105469 125.683594 236.113281 124.933594 235.101562 C 124.1875 234.089844 123.460938 233.0625 122.761719 232.015625 C 122.0625 230.96875 121.390625 229.90625 120.746094 228.828125 C 120.097656 227.75 119.476562 226.652344 118.886719 225.542969 C 118.292969 224.433594 117.726562 223.3125 117.191406 222.171875 C 116.652344 221.035156 116.140625 219.886719 115.660156 218.722656 C 115.179688 217.5625 114.726562 216.386719 114.304688 215.203125 C 113.878906 214.015625 113.484375 212.824219 113.121094 211.617188 C 112.753906 210.414062 112.417969 209.203125 112.113281 207.980469 C 111.808594 206.761719 111.53125 205.535156 111.289062 204.300781 C 111.042969 203.066406 110.828125 201.824219 110.640625 200.582031 C 110.457031 199.335938 110.304688 198.085938 110.179688 196.835938 C 110.058594 195.582031 109.964844 194.328125 109.902344 193.070312 C 109.839844 191.816406 109.8125 190.558594 109.8125 189.300781 C 109.8125 188.039062 109.839844 186.78125 109.902344 185.527344 C 109.964844 184.269531 110.058594 183.015625 110.179688 181.761719 C 110.304688 180.511719 110.457031 179.261719 110.640625 178.015625 C 110.828125 176.773438 111.042969 175.53125 111.289062 174.296875 C 111.53125 173.0625 111.808594 171.835938 112.113281 170.617188 C 112.417969 169.394531 112.753906 168.183594 113.121094 166.980469 C 113.484375 165.773438 113.878906 164.582031 114.304688 163.394531 C 114.726562 162.210938 115.179688 161.035156 115.660156 159.875 C 116.140625 158.710938 116.652344 157.5625 117.1875 156.425781 C 117.726562 155.285156 118.292969 154.164062 118.886719 153.054688 C 119.476562 151.945312 120.097656 150.847656 120.746094 149.769531 C 121.390625 148.691406 122.0625 147.628906 122.761719 146.582031 C 123.460938 145.535156 124.1875 144.507812 124.933594 143.496094 C 125.683594 142.484375 126.457031 141.492188 127.253906 140.519531 C 128.054688 139.546875 128.875 138.59375 129.71875 137.664062 C 130.5625 136.730469 131.429688 135.820312 132.320312 134.929688 C 133.210938 134.039062 134.121094 133.171875 135.050781 132.328125 C 135.984375 131.480469 136.9375 130.660156 137.910156 129.863281 C 138.882812 129.0625 139.871094 128.289062 140.882812 127.539062 C 141.894531 126.789062 142.921875 126.066406 143.96875 125.367188 C 145.011719 124.667969 146.074219 123.996094 147.152344 123.347656 C 148.234375 122.703125 149.328125 122.082031 150.4375 121.488281 C 151.546875 120.894531 152.667969 120.328125 153.804688 119.792969 C 154.941406 119.253906 156.09375 118.742188 157.253906 118.261719 C 158.414062 117.78125 159.589844 117.328125 160.773438 116.902344 C 161.957031 116.480469 163.152344 116.085938 164.355469 115.71875 C 165.558594 115.355469 166.769531 115.019531 167.992188 114.714844 C 169.210938 114.40625 170.4375 114.132812 171.671875 113.886719 C 172.90625 113.640625 174.144531 113.425781 175.386719 113.242188 C 176.632812 113.054688 177.878906 112.902344 179.132812 112.777344 C 180.382812 112.65625 181.636719 112.5625 182.894531 112.5 C 184.148438 112.441406 185.40625 112.410156 186.664062 112.410156 C 187.921875 112.410156 189.179688 112.441406 190.433594 112.5 C 191.691406 112.5625 192.945312 112.65625 194.199219 112.777344 C 195.449219 112.902344 196.695312 113.054688 197.941406 113.242188 C 199.183594 113.425781 200.425781 113.640625 201.65625 113.886719 C 202.890625 114.132812 204.117188 114.40625 205.339844 114.714844 C 206.558594 115.019531 207.769531 115.355469 208.972656 115.71875 C 210.175781 116.085938 211.371094 116.480469 212.554688 116.902344 C 213.738281 117.328125 214.914062 117.78125 216.074219 118.261719 C 217.238281 118.742188 218.386719 119.253906 219.523438 119.792969 C 220.660156 120.328125 221.785156 120.894531 222.894531 121.488281 C 224.003906 122.082031 225.097656 122.703125 226.175781 123.347656 C 227.253906 123.996094 228.316406 124.667969 229.363281 125.367188 C 230.40625 126.066406 231.4375 126.789062 232.445312 127.539062 C 233.457031 128.289062 234.449219 129.0625 235.421875 129.863281 C 236.390625 130.660156 237.34375 131.480469 238.277344 132.328125 C 239.207031 133.171875 240.117188 134.039062 241.007812 134.929688 Z M 241.007812 134.929688 "/>
</g>
</svg>
